<svg width="2000px" height="1629px"
 viewBox="0.00 0.00 475.36 386.61" xmlns="http://www.w3.org/2000/svg" xmlns:xlink="http://www.w3.org/1999/xlink">
<g id="graph0" class="graph" transform="scale(1.0 1.0) rotate(0) translate(4 382.61)">
<title>ContextMapGraph</title>
<polygon fill="white" stroke="transparent" points="-4,4 -4,-382.61 471.36,-382.61 471.36,4 -4,4"/>
<!-- CargoBookingContext -->
<g id="node1" class="node">
<title>CargoBookingContext</title>
<polygon fill="none" stroke="black" stroke-width="2" points="165.35,-144.49 174.62,-144.73 183.78,-145.09 192.82,-145.57 201.69,-146.16 210.35,-146.87 218.77,-147.69 226.91,-148.62 234.76,-149.66 242.27,-150.8 249.42,-152.05 256.19,-153.4 262.56,-154.84 268.49,-156.37 273.98,-157.99 279.01,-159.69 283.57,-161.47 287.64,-163.32 291.23,-165.24 294.32,-167.22 296.92,-169.26 299.02,-171.35 300.63,-173.49 301.76,-175.67 302.4,-177.88 302.57,-180.12 302.29,-182.38 301.56,-184.66 300.39,-186.94 298.82,-189.23 296.84,-191.52 294.49,-193.79 291.77,-196.05 288.72,-198.29 285.34,-200.51 281.67,-202.68 277.71,-204.82 273.5,-206.91 269.04,-208.95 264.37,-210.93 259.5,-212.85 254.45,-214.71 249.24,-216.48 243.88,-218.19 238.39,-219.8 232.78,-221.34 227.08,-222.78 221.28,-224.12 215.41,-225.37 209.48,-226.51 203.49,-227.55 197.45,-228.48 191.38,-229.3 185.27,-230.01 179.14,-230.6 172.98,-231.08 166.81,-231.44 160.64,-231.68 154.45,-231.8 148.26,-231.8 142.08,-231.68 135.9,-231.44 129.73,-231.08 123.58,-230.6 117.45,-230.01 111.34,-229.3 105.26,-228.48 99.23,-227.55 93.24,-226.51 87.3,-225.37 81.43,-224.12 75.64,-222.78 69.93,-221.34 64.33,-219.8 58.84,-218.19 53.48,-216.48 48.26,-214.71 43.21,-212.85 38.34,-210.93 33.67,-208.95 29.22,-206.91 25.01,-204.82 21.05,-202.68 17.38,-200.51 14,-198.29 10.94,-196.05 8.23,-193.79 5.87,-191.52 3.9,-189.23 2.32,-186.94 1.16,-184.66 0.43,-182.38 0.14,-180.12 0.32,-177.88 0.96,-175.67 2.08,-173.49 3.69,-171.35 5.79,-169.26 8.39,-167.22 11.48,-165.24 15.07,-163.32 19.15,-161.47 23.71,-159.69 28.74,-157.99 34.23,-156.37 40.16,-154.84 46.52,-153.4 53.29,-152.05 60.44,-150.8 67.96,-149.66 75.8,-148.62 83.95,-147.69 92.37,-146.87 101.03,-146.16 109.9,-145.57 118.93,-145.09 128.1,-144.73 137.36,-144.49 146.69,-144.37 156.03,-144.37 165.35,-144.49"/>
<text text-anchor="middle" x="151.36" y="-184.29" font-family="sans-serif" font-size="16.00">CargoBookingContext</text>
</g>
<!-- VoyagePlanningContext -->
<g id="node2" class="node">
<title>VoyagePlanningContext</title>
<polygon fill="none" stroke="black" stroke-width="2" points="136.31,-78.4 129.24,-76.38 122.51,-74.28 116.16,-72.11 110.2,-69.89 104.68,-67.63 99.6,-65.32 94.99,-62.98 90.88,-60.62 87.27,-58.24 84.19,-55.86 81.64,-53.48 79.64,-51.1 78.2,-48.74 77.31,-46.4 76.99,-44.09 77.23,-41.81 78.03,-39.58 79.38,-37.38 81.28,-35.24 83.71,-33.15 86.66,-31.13 90.12,-29.16 94.08,-27.26 98.5,-25.43 103.37,-23.67 108.66,-21.98 114.36,-20.38 120.43,-18.85 126.85,-17.4 133.58,-16.03 140.61,-14.75 147.9,-13.54 155.42,-12.43 163.14,-11.4 171.03,-10.45 179.06,-9.59 187.2,-8.82 195.42,-8.13 203.7,-7.54 211.99,-7.03 220.28,-6.6 228.55,-6.27 236.76,-6.03 244.89,-5.87 252.92,-5.81 260.83,-5.83 268.59,-5.95 276.2,-6.16 283.64,-6.46 290.88,-6.85 297.92,-7.33 304.75,-7.91 311.35,-8.58 317.71,-9.34 323.83,-10.2 329.69,-11.15 335.3,-12.2 340.65,-13.33 345.73,-14.57 350.54,-15.89 355.07,-17.3 359.34,-18.8 363.32,-20.39 367.03,-22.07 370.46,-23.83 373.62,-25.67 376.49,-27.59 379.08,-29.58 381.39,-31.64 383.42,-33.77 385.17,-35.96 386.63,-38.21 387.8,-40.5 388.69,-42.84 389.28,-45.22 389.58,-47.62 389.58,-50.06 389.28,-52.5 388.68,-54.96 387.77,-57.42 386.55,-59.86 385.02,-62.3 383.16,-64.7 380.98,-67.08 378.48,-69.41 375.65,-71.69 372.49,-73.92 368.99,-76.07 365.16,-78.15 361,-80.14 356.51,-82.04 351.68,-83.84 346.53,-85.53 341.05,-87.1 335.26,-88.55 329.15,-89.88 322.75,-91.07 316.05,-92.13 309.07,-93.04 301.83,-93.8 294.34,-94.42 286.61,-94.88 278.68,-95.19 270.54,-95.35 262.24,-95.34 253.8,-95.19 245.23,-94.88 236.56,-94.42 227.83,-93.8 219.07,-93.04 210.29,-92.14 201.54,-91.1 192.85,-89.92 184.24,-88.61 175.76,-87.18 167.43,-85.63 159.29,-83.97 151.36,-82.21 143.69,-80.35 136.31,-78.4"/>
<text text-anchor="middle" x="245.36" y="-43.82" font-family="sans-serif" font-size="16.00">VoyagePlanningContext</text>
</g>
<!-- CargoBookingContext&#45;&gt;VoyagePlanningContext -->
<g id="edge1" class="edge">
<title>CargoBookingContext&#45;&gt;VoyagePlanningContext</title>
<path fill="none" stroke="black" stroke-width="2" d="M180.07,-144.79C191.19,-128.4 203.93,-109.64 215.19,-93.05"/>
<text text-anchor="middle" x="238.86" y="-116.63" font-family="sans-serif" font-size="12.00">Shared Kernel</text>
</g>
<!-- LocationContext -->
<g id="node3" class="node">
<title>LocationContext</title>
<polygon fill="none" stroke="black" stroke-width="2" points="351.87,-315.99 354.3,-318.69 356.42,-321.41 358.22,-324.15 359.69,-326.88 360.83,-329.6 361.62,-332.3 362.05,-334.97 362.14,-337.6 361.87,-340.18 361.24,-342.69 360.25,-345.14 358.91,-347.52 357.21,-349.81 355.16,-352.01 352.77,-354.12 350.05,-356.12 346.99,-358.02 343.62,-359.81 339.93,-361.48 335.96,-363.04 331.7,-364.48 327.17,-365.81 322.39,-367.01 317.38,-368.09 312.14,-369.05 306.71,-369.88 301.09,-370.6 295.32,-371.21 289.4,-371.69 283.36,-372.07 277.22,-372.33 271,-372.49 264.72,-372.54 258.4,-372.49 252.07,-372.34 245.74,-372.1 239.43,-371.77 233.17,-371.34 226.98,-370.84 220.87,-370.25 214.86,-369.58 208.96,-368.84 203.21,-368.02 197.61,-367.14 192.18,-366.19 186.92,-365.17 181.87,-364.09 177.02,-362.94 172.4,-361.74 168,-360.48 163.85,-359.16 159.94,-357.79 156.3,-356.36 152.91,-354.87 149.79,-353.34 146.95,-351.75 144.38,-350.11 142.1,-348.42 140.1,-346.68 138.38,-344.89 136.94,-343.06 135.79,-341.18 134.92,-339.26 134.34,-337.29 134.03,-335.29 134,-333.24 134.25,-331.17 134.76,-329.06 135.54,-326.93 136.59,-324.77 137.89,-322.6 139.45,-320.41 141.25,-318.21 143.3,-316.01 145.58,-313.81 148.1,-311.62 150.84,-309.45 153.79,-307.3 156.97,-305.18 160.34,-303.1 163.92,-301.06 167.69,-299.08 171.64,-297.16 175.77,-295.31 180.07,-293.55 184.53,-291.86 189.15,-290.28 193.91,-288.79 198.81,-287.42 203.83,-286.16 208.97,-285.03 214.22,-284.03 219.57,-283.17 225,-282.45 230.51,-281.88 236.08,-281.46 241.7,-281.2 247.36,-281.11 253.04,-281.17 258.74,-281.4 264.43,-281.79 270.11,-282.35 275.76,-283.07 281.36,-283.95 286.9,-285 292.36,-286.2 297.73,-287.56 303,-289.06 308.13,-290.71 313.13,-292.49 317.97,-294.4 322.63,-296.44 327.1,-298.58 331.37,-300.84 335.42,-303.18 339.24,-305.61 342.8,-308.12 346.11,-310.69 349.13,-313.32 351.87,-315.99"/>
<text text-anchor="middle" x="244.36" y="-325.98" font-family="sans-serif" font-size="16.00">LocationContext</text>
</g>
<!-- LocationContext&#45;&gt;CargoBookingContext -->
<g id="edge3" class="edge">
<title>LocationContext&#45;&gt;CargoBookingContext</title>
<path fill="none" stroke="black" stroke-width="2" d="M206.78,-285.45C201.03,-278.12 195.35,-270.45 190.36,-262.94 183.78,-253.04 177.41,-241.9 171.8,-231.34"/>
<text text-anchor="middle" x="257.36" y="-253.34" font-family="sans-serif" font-size="12.00"> &#160;&#160;&#160;&#160;&#160;&#160;&#160;&#160;&#160;&#160;&#160;&#160;&#160;&#160;&#160;&#160;&#160;&#160;&#160;&#160;&#160;&#160;&#160;&#160;&#160;&#160;&#160;&#160;&#160;&#160;&#160;&#160;&#160;&#160;&#160;&#160;&#160;&#160;&#160;</text>
<polygon fill="white" stroke="transparent" points="165.8,-222.34 165.8,-239.34 178.8,-239.34 178.8,-222.34 165.8,-222.34"/>
<text text-anchor="start" x="167.8" y="-227.74" font-family="sans-serif" font-size="12.00">D</text>
<polygon fill="white" stroke="transparent" points="200.78,-276.45 200.78,-293.45 213.78,-293.45 213.78,-276.45 200.78,-276.45"/>
<text text-anchor="start" x="202.78" y="-281.85" font-family="sans-serif" font-size="12.00">U</text>
</g>
<!-- LocationContext&#45;&gt;VoyagePlanningContext -->
<g id="edge2" class="edge">
<title>LocationContext&#45;&gt;VoyagePlanningContext</title>
<path fill="none" stroke="black" stroke-width="2" d="M305.13,-289.26C312.91,-281.5 319.75,-272.7 324.36,-262.94 350.86,-206.82 315.43,-139.22 283.89,-95.14"/>
<text text-anchor="middle" x="400.36" y="-184.99" font-family="sans-serif" font-size="12.00"> &#160;&#160;&#160;&#160;&#160;&#160;&#160;&#160;&#160;&#160;&#160;&#160;&#160;&#160;&#160;&#160;&#160;&#160;&#160;&#160;&#160;&#160;&#160;&#160;&#160;&#160;&#160;&#160;&#160;&#160;&#160;&#160;&#160;&#160;&#160;&#160;&#160;&#160;&#160;</text>
<polygon fill="white" stroke="transparent" points="277.89,-86.14 277.89,-103.14 290.89,-103.14 290.89,-86.14 277.89,-86.14"/>
<text text-anchor="start" x="279.89" y="-91.54" font-family="sans-serif" font-size="12.00">D</text>
<polygon fill="white" stroke="transparent" points="299.13,-280.26 299.13,-297.26 312.13,-297.26 312.13,-280.26 299.13,-280.26"/>
<text text-anchor="start" x="301.13" y="-285.66" font-family="sans-serif" font-size="12.00">U</text>
</g>
</g>
</svg>
