<svg width="2000px" height="1194px"
 viewBox="0.00 0.00 898.46 535.71" xmlns="http://www.w3.org/2000/svg" xmlns:xlink="http://www.w3.org/1999/xlink">
<g id="graph0" class="graph" transform="scale(1.0 1.0) rotate(0) translate(4 531.71)">
<title>ContextMapGraph</title>
<polygon fill="white" stroke="transparent" points="-4,4 -4,-531.71 894.46,-531.71 894.46,4 -4,4"/>
<!-- ClaimsManagement -->
<g id="node1" class="node">
<title>ClaimsManagement</title>
<polygon fill="none" stroke="black" stroke-width="2" points="385.3,-147.5 393.82,-148.04 402.21,-148.69 410.44,-149.46 418.47,-150.34 426.28,-151.32 433.83,-152.41 441.1,-153.6 448.04,-154.89 454.65,-156.28 460.89,-157.75 466.74,-159.31 472.19,-160.95 477.2,-162.67 481.78,-164.46 485.91,-166.32 489.58,-168.24 492.77,-170.22 495.49,-172.25 497.73,-174.33 499.49,-176.45 500.78,-178.6 501.6,-180.78 501.95,-182.99 501.85,-185.22 501.3,-187.46 500.32,-189.7 498.92,-191.95 497.11,-194.19 494.93,-196.42 492.37,-198.64 489.46,-200.83 486.23,-203 482.69,-205.14 478.86,-207.23 474.76,-209.29 470.41,-211.29 465.84,-213.24 461.07,-215.13 456.11,-216.96 450.98,-218.71 445.71,-220.4 440.31,-222 434.8,-223.53 429.2,-224.96 423.51,-226.31 417.76,-227.56 411.96,-228.72 406.13,-229.77 400.26,-230.72 394.37,-231.57 388.48,-232.3 382.58,-232.92 376.69,-233.43 370.82,-233.82 364.96,-234.1 359.13,-234.26 353.32,-234.3 347.55,-234.22 341.81,-234.02 336.11,-233.7 330.45,-233.26 324.85,-232.7 319.29,-232.03 313.79,-231.24 308.35,-230.34 302.97,-229.33 297.67,-228.2 292.44,-226.97 287.3,-225.64 282.25,-224.21 277.3,-222.68 272.47,-221.06 267.75,-219.35 263.17,-217.56 258.74,-215.69 254.47,-213.74 250.37,-211.73 246.46,-209.66 242.75,-207.53 239.27,-205.36 236.03,-203.13 233.03,-200.88 230.31,-198.59 227.88,-196.27 225.76,-193.94 223.96,-191.6 222.49,-189.25 221.39,-186.91 220.65,-184.57 220.29,-182.26 220.34,-179.96 220.79,-177.7 221.66,-175.47 222.95,-173.29 224.68,-171.15 226.86,-169.07 229.47,-167.05 232.52,-165.1 236.02,-163.23 239.95,-161.43 244.32,-159.71 249.11,-158.08 254.32,-156.55 259.92,-155.11 265.91,-153.78 272.27,-152.54 278.97,-151.42 286,-150.41 293.33,-149.51 300.94,-148.73 308.79,-148.06 316.86,-147.51 325.12,-147.09 333.53,-146.78 342.06,-146.6 350.68,-146.54 359.34,-146.6 368.03,-146.78 376.69,-147.08 385.3,-147.5"/>
<text text-anchor="middle" x="358.52" y="-186.72" font-family="sans-serif" font-size="16.00">ClaimsManagement</text>
</g>
<!-- CustomerSelfService -->
<g id="node2" class="node">
<title>CustomerSelfService</title>
<polygon fill="none" stroke="black" stroke-width="2" points="236.19,-28.48 240.25,-25.93 244.63,-23.45 249.31,-21.06 254.26,-18.75 259.48,-16.55 264.94,-14.46 270.62,-12.48 276.51,-10.64 282.59,-8.92 288.84,-7.35 295.23,-5.93 301.75,-4.65 308.39,-3.54 315.12,-2.58 321.92,-1.78 328.78,-1.15 335.67,-0.68 342.59,-0.37 349.51,-0.23 356.41,-0.26 363.29,-0.44 370.12,-0.78 376.9,-1.27 383.59,-1.92 390.2,-2.71 396.71,-3.63 403.1,-4.69 409.36,-5.88 415.47,-7.18 421.44,-8.6 427.24,-10.12 432.86,-11.74 438.29,-13.45 443.53,-15.24 448.56,-17.1 453.37,-19.03 457.95,-21.01 462.29,-23.04 466.39,-25.11 470.23,-27.22 473.81,-29.35 477.11,-31.5 480.14,-33.66 482.87,-35.83 485.31,-38 487.45,-40.16 489.28,-42.32 490.79,-44.46 491.97,-46.58 492.83,-48.67 493.36,-50.74 493.55,-52.78 493.4,-54.78 492.9,-56.75 492.05,-58.68 490.86,-60.57 489.31,-62.42 487.41,-64.23 485.16,-65.99 482.57,-67.71 479.62,-69.38 476.33,-71 472.7,-72.58 468.74,-74.1 464.45,-75.58 459.85,-77 454.93,-78.37 449.71,-79.69 444.21,-80.96 438.43,-82.16 432.39,-83.31 426.11,-84.4 419.59,-85.42 412.86,-86.38 405.94,-87.27 398.85,-88.09 391.6,-88.84 384.21,-89.51 376.72,-90.1 369.14,-90.6 361.5,-91.02 353.81,-91.35 346.11,-91.58 338.42,-91.72 330.76,-91.75 323.17,-91.68 315.66,-91.5 308.26,-91.2 300.99,-90.8 293.89,-90.27 286.96,-89.63 280.25,-88.87 273.77,-87.98 267.54,-86.97 261.58,-85.84 255.92,-84.58 250.57,-83.2 245.56,-81.69 240.88,-80.07 236.58,-78.33 232.64,-76.48 229.1,-74.51 225.96,-72.45 223.22,-70.28 220.9,-68.01 219,-65.66 217.53,-63.23 216.49,-60.73 215.87,-58.16 215.69,-55.53 215.93,-52.86 216.59,-50.16 217.67,-47.43 219.16,-44.68 221.06,-41.93 223.34,-39.18 226.01,-36.45 229.05,-33.75 232.45,-31.09 236.19,-28.48"/>
<text text-anchor="middle" x="358.52" y="-44.97" font-family="sans-serif" font-size="16.00">CustomerSelfService</text>
</g>
<!-- ClaimsManagement&#45;&gt;CustomerSelfService -->
<g id="edge1" class="edge">
<title>ClaimsManagement&#45;&gt;CustomerSelfService</title>
<path fill="none" stroke="black" stroke-width="2" d="M358.52,-146.45C358.52,-128.97 358.52,-108.84 358.52,-91.5"/>
<text text-anchor="middle" x="425.52" y="-118.93" font-family="sans-serif" font-size="12.00"> &#160;&#160;&#160;&#160;&#160;&#160;&#160;&#160;&#160;&#160;&#160;&#160;&#160;&#160;&#160;&#160;&#160;&#160;&#160;&#160;&#160;&#160;&#160;&#160;&#160;&#160;&#160;&#160;&#160;&#160;&#160;&#160;&#160;&#160;&#160;&#160;&#160;&#160;&#160;</text>
<polygon fill="white" stroke="transparent" points="352.52,-82.5 352.52,-99.5 365.52,-99.5 365.52,-82.5 352.52,-82.5"/>
<text text-anchor="start" x="354.52" y="-87.9" font-family="sans-serif" font-size="12.00">D</text>
<polygon fill="white" stroke="transparent" points="352.52,-137.45 352.52,-154.45 365.52,-154.45 365.52,-137.45 352.52,-137.45"/>
<text text-anchor="start" x="354.52" y="-142.85" font-family="sans-serif" font-size="12.00">U</text>
</g>
<!-- CustomerCore -->
<g id="node3" class="node">
<title>CustomerCore</title>
<polygon fill="none" stroke="black" stroke-width="2" points="377.02,-462.87 379.63,-465.52 381.96,-468.2 383.98,-470.9 385.7,-473.6 387.1,-476.3 388.18,-478.98 388.92,-481.64 389.34,-484.26 389.41,-486.85 389.14,-489.37 388.53,-491.84 387.58,-494.24 386.28,-496.57 384.65,-498.81 382.69,-500.96 380.4,-503.02 377.79,-504.98 374.87,-506.84 371.65,-508.59 368.14,-510.23 364.35,-511.75 360.29,-513.17 355.99,-514.46 351.45,-515.64 346.69,-516.71 341.73,-517.66 336.58,-518.49 331.27,-519.21 325.82,-519.82 320.23,-520.31 314.54,-520.7 308.76,-520.98 302.91,-521.16 297.01,-521.24 291.09,-521.22 285.16,-521.11 279.23,-520.9 273.34,-520.61 267.5,-520.22 261.73,-519.76 256.04,-519.21 250.45,-518.59 244.98,-517.89 239.65,-517.12 234.46,-516.28 229.44,-515.37 224.59,-514.39 219.92,-513.35 215.46,-512.24 211.2,-511.06 207.16,-509.83 203.35,-508.54 199.76,-507.18 196.42,-505.77 193.32,-504.29 190.47,-502.76 187.87,-501.18 185.52,-499.53 183.43,-497.84 181.6,-496.09 180.03,-494.28 178.72,-492.43 177.67,-490.52 176.88,-488.57 176.34,-486.57 176.05,-484.53 176.02,-482.45 176.23,-480.34 176.69,-478.19 177.39,-476.01 178.33,-473.81 179.51,-471.59 180.91,-469.35 182.54,-467.11 184.39,-464.87 186.46,-462.63 188.74,-460.4 191.23,-458.19 193.92,-456.01 196.8,-453.86 199.88,-451.76 203.14,-449.7 206.59,-447.7 210.21,-445.77 213.99,-443.92 217.94,-442.14 222.04,-440.46 226.3,-438.88 230.69,-437.41 235.22,-436.05 239.87,-434.82 244.63,-433.71 249.51,-432.74 254.48,-431.92 259.55,-431.23 264.69,-430.71 269.9,-430.33 275.16,-430.12 280.47,-430.07 285.81,-430.18 291.17,-430.46 296.54,-430.9 301.9,-431.51 307.23,-432.28 312.53,-433.21 317.77,-434.3 322.95,-435.55 328.05,-436.95 333.05,-438.49 337.93,-440.17 342.68,-441.98 347.29,-443.92 351.73,-445.98 356,-448.14 360.07,-450.4 363.94,-452.76 367.58,-455.19 370.98,-457.69 374.14,-460.26 377.02,-462.87"/>
<text text-anchor="middle" x="278.52" y="-475.03" font-family="sans-serif" font-size="16.00">CustomerCore</text>
</g>
<!-- CustomerCore&#45;&gt;ClaimsManagement -->
<g id="edge4" class="edge">
<title>CustomerCore&#45;&gt;ClaimsManagement</title>
<path fill="none" stroke="black" stroke-width="2" d="M206.15,-447.9C178.2,-432.34 149.22,-410.32 133.52,-380.95 113.11,-342.76 109.38,-319.47 133.52,-283.52 159.16,-245.33 203.76,-222.98 246.52,-209.91"/>
<text text-anchor="middle" x="200.52" y="-329.13" font-family="sans-serif" font-size="12.00"> &#160;&#160;&#160;&#160;&#160;&#160;&#160;&#160;&#160;&#160;&#160;&#160;&#160;&#160;&#160;&#160;&#160;&#160;&#160;&#160;&#160;&#160;&#160;&#160;&#160;&#160;&#160;&#160;&#160;&#160;&#160;&#160;&#160;&#160;&#160;&#160;&#160;&#160;&#160;</text>
<polygon fill="white" stroke="transparent" points="240.52,-200.91 240.52,-217.91 253.52,-217.91 253.52,-200.91 240.52,-200.91"/>
<text text-anchor="start" x="242.52" y="-206.31" font-family="sans-serif" font-size="12.00">D</text>
<polygon fill="white" stroke="transparent" points="172.15,-437.9 172.15,-456.9 187.15,-456.9 187.15,-437.9 172.15,-437.9"/>
<polyline fill="none" stroke="black" points="187.15,-437.9 187.15,-456.9 "/>
<text text-anchor="start" x="175.15" y="-444.3" font-family="sans-serif" font-size="12.00">U</text>
<polygon fill="white" stroke="transparent" points="187.15,-437.9 187.15,-456.9 241.15,-456.9 241.15,-437.9 187.15,-437.9"/>
<polygon fill="none" stroke="black" points="187.15,-437.9 187.15,-456.9 241.15,-456.9 241.15,-437.9 187.15,-437.9"/>
<text text-anchor="start" x="190.15" y="-444.3" font-family="sans-serif" font-size="12.00">OHS, PL</text>
</g>
<!-- CustomerCore&#45;&gt;CustomerSelfService -->
<g id="edge5" class="edge">
<title>CustomerCore&#45;&gt;CustomerSelfService</title>
<path fill="none" stroke="black" stroke-width="2" d="M199.38,-452.08C102.85,-416.06 -41.31,-344.58 11.52,-252.52 61.62,-165.22 165.43,-111.93 246.52,-82.04"/>
<text text-anchor="middle" x="78.52" y="-255.92" font-family="sans-serif" font-size="12.00"> &#160;&#160;&#160;&#160;&#160;&#160;&#160;&#160;&#160;&#160;&#160;&#160;&#160;&#160;&#160;&#160;&#160;&#160;&#160;&#160;&#160;&#160;&#160;&#160;&#160;&#160;&#160;&#160;&#160;&#160;&#160;&#160;&#160;&#160;&#160;&#160;&#160;&#160;&#160;</text>
<polygon fill="white" stroke="transparent" points="228.52,-72.04 228.52,-91.04 243.52,-91.04 243.52,-72.04 228.52,-72.04"/>
<polyline fill="none" stroke="black" points="243.52,-72.04 243.52,-91.04 "/>
<text text-anchor="start" x="231.52" y="-78.44" font-family="sans-serif" font-size="12.00">D</text>
<polygon fill="white" stroke="transparent" points="243.52,-72.04 243.52,-91.04 265.52,-91.04 265.52,-72.04 243.52,-72.04"/>
<polygon fill="none" stroke="black" points="243.52,-72.04 243.52,-91.04 265.52,-91.04 265.52,-72.04 243.52,-72.04"/>
<text text-anchor="start" x="246.52" y="-78.44" font-family="sans-serif" font-size="12.00">CF</text>
<polygon fill="white" stroke="transparent" points="165.38,-442.08 165.38,-461.08 180.38,-461.08 180.38,-442.08 165.38,-442.08"/>
<polyline fill="none" stroke="black" points="180.38,-442.08 180.38,-461.08 "/>
<text text-anchor="start" x="168.38" y="-448.48" font-family="sans-serif" font-size="12.00">U</text>
<polygon fill="white" stroke="transparent" points="180.38,-442.08 180.38,-461.08 234.38,-461.08 234.38,-442.08 180.38,-442.08"/>
<polygon fill="none" stroke="black" points="180.38,-442.08 180.38,-461.08 234.38,-461.08 234.38,-442.08 180.38,-442.08"/>
<text text-anchor="start" x="183.38" y="-448.48" font-family="sans-serif" font-size="12.00">OHS, PL</text>
</g>
<!-- CustomerManagement -->
<g id="node4" class="node">
<title>CustomerManagement</title>
<polygon fill="none" stroke="black" stroke-width="2" points="543.13,-361.56 536.87,-363.74 530.34,-365.83 523.58,-367.81 516.6,-369.69 509.44,-371.44 502.12,-373.07 494.66,-374.56 487.09,-375.91 479.43,-377.12 471.72,-378.18 463.98,-379.08 456.22,-379.82 448.47,-380.4 440.76,-380.82 433.11,-381.08 425.52,-381.17 418.04,-381.09 410.66,-380.86 403.42,-380.46 396.32,-379.9 389.38,-379.19 382.61,-378.33 376.04,-377.32 369.66,-376.17 363.48,-374.89 357.53,-373.48 351.81,-371.95 346.32,-370.3 341.07,-368.55 336.08,-366.7 331.34,-364.76 326.86,-362.74 322.64,-360.65 318.7,-358.49 315.02,-356.28 311.63,-354.03 308.52,-351.73 305.69,-349.41 303.15,-347.06 300.9,-344.7 298.94,-342.34 297.28,-339.97 295.92,-337.62 294.86,-335.29 294.11,-332.97 293.66,-330.69 293.53,-328.44 293.71,-326.23 294.2,-324.06 295.02,-321.94 296.15,-319.88 297.61,-317.87 299.39,-315.91 301.51,-314.02 303.94,-312.2 306.71,-310.44 309.81,-308.75 313.23,-307.13 316.98,-305.57 321.05,-304.09 325.44,-302.68 330.15,-301.35 335.17,-300.09 340.49,-298.9 346.1,-297.79 352.01,-296.75 358.19,-295.78 364.63,-294.9 371.33,-294.08 378.26,-293.35 385.42,-292.69 392.78,-292.11 400.33,-291.62 408.04,-291.2 415.89,-290.86 423.87,-290.6 431.95,-290.43 440.1,-290.35 448.3,-290.35 456.53,-290.44 464.74,-290.62 472.93,-290.9 481.05,-291.26 489.09,-291.73 497.01,-292.29 504.78,-292.94 512.37,-293.7 519.76,-294.56 526.92,-295.52 533.82,-296.58 540.43,-297.74 546.73,-299.01 552.69,-300.38 558.29,-301.85 563.51,-303.42 568.32,-305.09 572.71,-306.86 576.66,-308.72 580.16,-310.67 583.19,-312.7 585.74,-314.82 587.79,-317.02 589.35,-319.29 590.41,-321.63 590.97,-324.02 591.02,-326.47 590.56,-328.97 589.6,-331.5 588.15,-334.06 586.21,-336.65 583.8,-339.24 580.92,-341.84 577.59,-344.43 573.82,-347.01 569.64,-349.56 565.05,-352.07 560.09,-354.53 554.76,-356.94 549.1,-359.29 543.13,-361.56"/>
<text text-anchor="middle" x="433.52" y="-328.43" font-family="sans-serif" font-size="16.00">CustomerManagement</text>
</g>
<!-- CustomerCore&#45;&gt;CustomerManagement -->
<g id="edge2" class="edge">
<title>CustomerCore&#45;&gt;CustomerManagement</title>
<path fill="none" stroke="black" stroke-width="2" d="M323.77,-435.62C342.89,-417.78 365.2,-396.97 384.69,-378.78"/>
<text text-anchor="middle" x="427.52" y="-402.35" font-family="sans-serif" font-size="12.00"> &#160;&#160;&#160;&#160;&#160;&#160;&#160;&#160;&#160;&#160;&#160;&#160;&#160;&#160;&#160;&#160;&#160;&#160;&#160;&#160;&#160;&#160;&#160;&#160;&#160;&#160;&#160;&#160;&#160;&#160;&#160;&#160;&#160;&#160;&#160;&#160;&#160;&#160;&#160;</text>
<polygon fill="white" stroke="transparent" points="378.69,-369.78 378.69,-386.78 391.69,-386.78 391.69,-369.78 378.69,-369.78"/>
<text text-anchor="start" x="380.69" y="-375.18" font-family="sans-serif" font-size="12.00">D</text>
<polygon fill="white" stroke="transparent" points="289.77,-425.62 289.77,-444.62 304.77,-444.62 304.77,-425.62 289.77,-425.62"/>
<polyline fill="none" stroke="black" points="304.77,-425.62 304.77,-444.62 "/>
<text text-anchor="start" x="292.77" y="-432.02" font-family="sans-serif" font-size="12.00">U</text>
<polygon fill="white" stroke="transparent" points="304.77,-425.62 304.77,-444.62 358.77,-444.62 358.77,-425.62 304.77,-425.62"/>
<polygon fill="none" stroke="black" points="304.77,-425.62 304.77,-444.62 358.77,-444.62 358.77,-425.62 304.77,-425.62"/>
<text text-anchor="start" x="307.77" y="-432.02" font-family="sans-serif" font-size="12.00">OHS, PL</text>
</g>
<!-- PolicyManagement -->
<g id="node5" class="node">
<title>PolicyManagement</title>
<polygon fill="none" stroke="black" stroke-width="2" points="827.31,-367.1 820.72,-368.88 813.97,-370.54 807.07,-372.09 800.04,-373.52 792.92,-374.83 785.74,-375.99 778.51,-377.03 771.27,-377.91 764.03,-378.66 756.83,-379.25 749.68,-379.68 742.62,-379.97 735.65,-380.09 728.8,-380.06 722.09,-379.87 715.54,-379.53 709.15,-379.03 702.96,-378.38 696.96,-377.57 691.18,-376.63 685.62,-375.54 680.29,-374.31 675.21,-372.95 670.37,-371.47 665.79,-369.86 661.46,-368.15 657.4,-366.33 653.6,-364.41 650.07,-362.4 646.81,-360.31 643.82,-358.15 641.09,-355.92 638.64,-353.64 636.45,-351.31 634.52,-348.94 632.86,-346.54 631.47,-344.13 630.33,-341.7 629.45,-339.26 628.83,-336.83 628.46,-334.41 628.34,-332.01 628.48,-329.64 628.86,-327.3 629.5,-325 630.38,-322.74 631.52,-320.54 632.89,-318.39 634.52,-316.31 636.39,-314.29 638.51,-312.34 640.88,-310.46 643.49,-308.65 646.35,-306.93 649.45,-305.29 652.8,-303.73 656.4,-302.26 660.23,-300.87 664.31,-299.57 668.62,-298.35 673.17,-297.23 677.95,-296.2 682.96,-295.25 688.18,-294.39 693.62,-293.63 699.26,-292.95 705.09,-292.36 711.11,-291.87 717.31,-291.46 723.67,-291.14 730.17,-290.9 736.8,-290.76 743.56,-290.7 750.4,-290.73 757.33,-290.85 764.32,-291.06 771.34,-291.35 778.38,-291.74 785.42,-292.21 792.42,-292.76 799.37,-293.41 806.25,-294.14 813.01,-294.97 819.65,-295.88 826.13,-296.87 832.44,-297.96 838.53,-299.13 844.4,-300.39 850,-301.74 855.33,-303.17 860.36,-304.68 865.06,-306.28 869.42,-307.95 873.41,-309.71 877.01,-311.54 880.22,-313.44 883.01,-315.42 885.37,-317.46 887.28,-319.56 888.75,-321.72 889.76,-323.93 890.31,-326.19 890.39,-328.5 890.01,-330.84 889.15,-333.21 887.84,-335.6 886.06,-338.01 883.84,-340.43 881.17,-342.84 878.08,-345.25 874.57,-347.65 870.66,-350.02 866.36,-352.36 861.7,-354.66 856.7,-356.91 851.37,-359.1 845.75,-361.22 839.84,-363.27 833.69,-365.23 827.31,-367.1"/>
<text text-anchor="middle" x="749.52" y="-328.43" font-family="sans-serif" font-size="16.00">PolicyManagement</text>
</g>
<!-- CustomerCore&#45;&gt;PolicyManagement -->
<g id="edge3" class="edge">
<title>CustomerCore&#45;&gt;PolicyManagement</title>
<path fill="none" stroke="black" stroke-width="2" d="M363.81,-452.58C428.58,-433.29 519.79,-405.87 599.52,-380.95 616.73,-375.57 635.04,-369.79 652.74,-364.18"/>
<text text-anchor="middle" x="604.52" y="-402.35" font-family="sans-serif" font-size="12.00"> &#160;&#160;&#160;&#160;&#160;&#160;&#160;&#160;&#160;&#160;&#160;&#160;&#160;&#160;&#160;&#160;&#160;&#160;&#160;&#160;&#160;&#160;&#160;&#160;&#160;&#160;&#160;&#160;&#160;&#160;&#160;&#160;&#160;&#160;&#160;&#160;&#160;&#160;&#160;</text>
<polygon fill="white" stroke="transparent" points="630.74,-354.18 630.74,-373.18 645.74,-373.18 645.74,-354.18 630.74,-354.18"/>
<polyline fill="none" stroke="black" points="645.74,-354.18 645.74,-373.18 "/>
<text text-anchor="start" x="633.74" y="-360.58" font-family="sans-serif" font-size="12.00">D</text>
<polygon fill="white" stroke="transparent" points="645.74,-354.18 645.74,-373.18 675.74,-373.18 675.74,-354.18 645.74,-354.18"/>
<polygon fill="none" stroke="black" points="645.74,-354.18 645.74,-373.18 675.74,-373.18 675.74,-354.18 645.74,-354.18"/>
<text text-anchor="start" x="648.74" y="-360.58" font-family="sans-serif" font-size="12.00">ACL</text>
<polygon fill="white" stroke="transparent" points="329.81,-442.58 329.81,-461.58 344.81,-461.58 344.81,-442.58 329.81,-442.58"/>
<polyline fill="none" stroke="black" points="344.81,-442.58 344.81,-461.58 "/>
<text text-anchor="start" x="332.81" y="-448.98" font-family="sans-serif" font-size="12.00">U</text>
<polygon fill="white" stroke="transparent" points="344.81,-442.58 344.81,-461.58 398.81,-461.58 398.81,-442.58 344.81,-442.58"/>
<polygon fill="none" stroke="black" points="344.81,-442.58 344.81,-461.58 398.81,-461.58 398.81,-442.58 344.81,-442.58"/>
<text text-anchor="start" x="347.81" y="-448.98" font-family="sans-serif" font-size="12.00">OHS, PL</text>
</g>
<!-- PolicyManagement&#45;&gt;ClaimsManagement -->
<g id="edge6" class="edge">
<title>PolicyManagement&#45;&gt;ClaimsManagement</title>
<path fill="none" stroke="black" stroke-width="2" d="M660.46,-300.7C640.55,-294.49 619.43,-288.38 599.52,-283.52 553.95,-272.38 539.85,-280.86 495.52,-265.52 468.19,-256.05 439.77,-241.58 415.95,-227.93"/>
<text text-anchor="middle" x="562.52" y="-255.92" font-family="sans-serif" font-size="12.00"> &#160;&#160;&#160;&#160;&#160;&#160;&#160;&#160;&#160;&#160;&#160;&#160;&#160;&#160;&#160;&#160;&#160;&#160;&#160;&#160;&#160;&#160;&#160;&#160;&#160;&#160;&#160;&#160;&#160;&#160;&#160;&#160;&#160;&#160;&#160;&#160;&#160;&#160;&#160;</text>
<polygon fill="white" stroke="transparent" points="409.95,-218.93 409.95,-235.93 422.95,-235.93 422.95,-218.93 409.95,-218.93"/>
<text text-anchor="start" x="411.95" y="-224.33" font-family="sans-serif" font-size="12.00">D</text>
<polygon fill="white" stroke="transparent" points="654.46,-291.7 654.46,-308.7 667.46,-308.7 667.46,-291.7 654.46,-291.7"/>
<text text-anchor="start" x="656.46" y="-297.1" font-family="sans-serif" font-size="12.00">U</text>
</g>
<!-- PolicyManagement&#45;&gt;CustomerSelfService -->
<g id="edge7" class="edge">
<title>PolicyManagement&#45;&gt;CustomerSelfService</title>
<path fill="none" stroke="black" stroke-width="2" d="M710.08,-291.82C662.4,-245.61 578.36,-168.61 496.52,-115.53 477.93,-103.47 456.78,-92.28 436.73,-82.68"/>
<text text-anchor="middle" x="712.52" y="-187.42" font-family="sans-serif" font-size="12.00"> &#160;&#160;&#160;&#160;&#160;&#160;&#160;&#160;&#160;&#160;&#160;&#160;&#160;&#160;&#160;&#160;&#160;&#160;&#160;&#160;&#160;&#160;&#160;&#160;&#160;&#160;&#160;&#160;&#160;&#160;&#160;&#160;&#160;&#160;&#160;&#160;&#160;&#160;&#160;</text>
<polygon fill="white" stroke="transparent" points="430.73,-73.68 430.73,-90.68 443.73,-90.68 443.73,-73.68 430.73,-73.68"/>
<text text-anchor="start" x="432.73" y="-79.08" font-family="sans-serif" font-size="12.00">D</text>
<polygon fill="white" stroke="transparent" points="704.08,-282.82 704.08,-299.82 717.08,-299.82 717.08,-282.82 704.08,-282.82"/>
<text text-anchor="start" x="706.08" y="-288.22" font-family="sans-serif" font-size="12.00">U</text>
</g>
</g>
</svg>
